<?xml version="1.0" encoding="UTF-8"?>
<svg id="_레이어_1" data-name="레이어_1" xmlns="http://www.w3.org/2000/svg" version="1.1" viewBox="0 0 595.28 841.89">
  <!-- Generator: Adobe Illustrator 30.0.0, SVG Export Plug-In . SVG Version: 2.1.1 Build 123)  -->
  <defs>
    <style>
      .st0 {
        fill: #fff5e0;
      }

      .st1 {
        fill: #fff;
      }

      .st2 {
        fill: none;
        stroke: #898989;
        stroke-dasharray: 2 1;
        stroke-linecap: round;
        stroke-width: .25px;
      }

      .st3 {
        fill: #cfb67b;
      }
    </style>
  </defs>
  <path class="st1" d="M311.36,521.4c-40.44.6-78.25,2.47-79.55,3.38-1.97,1.38-63.98-70.86-65.18-72.11-1.19-1.25-19.08-23.45-19.08-23.45l11.53-29.76s31.8,21.95,81.49,45.9c26.69,12.86,52.35,17.67,75.69,16.84"/>
  <path class="st1" d="M316.26,462.21c20.1-.72,38.48-5.62,54.3-13.17,34.19-16.3,59.29,8.15,59.29,8.15l22.62-14.92v-13.05l18.28,2.76s3.18,25.19-15.5,44.98c-18.68,19.79-31.8,46.82-83.48,44.83-17.67-.68-39.39-.71-60.4-.39"/>
  <g>
    <g>
      <path class="st3" d="M526.05,454.6c-2.18-2.98-3.32-7.84-3.74-12.48-.41-4.64-2.14-6.14-2.54-8.71-.34-2.15-2.4-8.44-4.15-11.6-1.49.17-3.2.12-3.93.33-1.19.34-6.54,3.88-8.11,5.06-1.59,1.18-6.14,3.21-7.33,4.9-1.19,1.69-2.78,2.2-4.55,3.38-1.79,1.18-6.34-.34-8.71-.85-2.37-.51-5.94.51-8.51,1.86-2.57,1.35-11.09,5.74-12.27,8.94-1.19,3.21-5.74,14.69-7.33,16.88-1.58,2.2-3.37,5.74-4.55,7.09-1.18,1.35-3.56,5.4-4.95,7.43-1.38,2.02-3.56,4.89-5.15,6.58-1.58,1.69-2.57,1.69-4.55,2.88-1.98,1.18-5.54,3.2-7.72,4.39-2.17,1.19-6.53,1.01-9.9.67-3.37-.33-13.46-1.86-14.45-2.02-.99-.17-1.98,1.52-3.37,0-1.38-1.52-4.16-3.37-6.34-4.39-2.18-1.01-2.97-2.37-4.55-3.72-1.58-1.35-5.15-2.53-8.12-3.38-2.97-.85-13.66-4.05-16.63-5.06-2.96-1.01-6.73-1.52-10.69,2.37-3.96,3.88-13.27,11.81-15.84,14.34-2.58,2.54-6.14,7.1-8.52,7.6-2.37.5-5.54,1.86-7.12,3.55-1.59,1.68-4.55,3.71-8.71,3.54-4.16-.17-6.93-.34-8.12.85-1.19,1.18-1.79.84-3.17-.34-1.38-1.19-8.12-2.71-11.48-4.22-3.37-1.52-10.89-5.91-12.87-6.59-1.98-.67-7.74-3.69-10.51-2.68-2.77,1.02-15.04,2.36-20,1.69-4.95-.68-10.89-5.91-12.67-8.28-1.79-2.37-3.56-6.92-4.16-9.28-.59-2.37-2.56-3.9-3.55-5.59-.99-1.69-5.15-4.05-6.93-5.74-1.78-1.69-7.32-5.57-8.91-7.26-1.58-1.69-7.72-6.07-10.49-6.75-2.77-.67-5.75-.5-7.13-3.71-1.38-3.21-5.74-5.06-8.12-7.09-2.38-2.02-16.83-11.31-19.6-12.49-2.77-1.18-17.82-8.95-20.59-10.46-2.77-1.53-19.4-9.79-20.19-11.82-.58-1.49-5.88-8.17-11.16-12.42-1.14,2.71-3.14,4.64-3.2,6.38-.01.47.11.92.43,1.37,1.27,1.81,2.83,3.73,2.78,5.58-.01.62-.21,1.22-.65,1.82-1.76,2.37-4.95,4.43-6.15,6.01-1.05,1.39-.87,1.26-1.71,3.48-.55,1.45-1.95,2.2-3.25,3.38-.43.39-.86.83-1.24,1.36-.15.21-.31.41-.48.6-2.57,2.85-7.38,3.61-7.61,5.68-.25,2.21-.27,3.13-3.31,4.01-1.9.55-2.78,1.05-2.93,1.93-.09.53.09,1.2.48,2.1.78,1.81,1.73,3.64,1.57,4.72-.05.36-.23.64-.57.8-2.12,1-2.14-1.51-3.46.13,0,0-1.92,2.36-3.46,2.29-1.54-.06-3.92.13-4.69,1.51-.77,1.38-.85,1.51-1.38,2.16-.54.66-.16,1.44,1,1.57,1.15.13,3.31,2.04,3.92,3.08.61,1.05,1.61,2.23,3.07,2.16,0,0,.06-.01.18-.03.82-.1,4.29-.36,7.06,1.97,1.2,1.01,2.79.94,4.74.96,1.94.03,9.68,1.8,10.05,5.68.07.73.12,1.45.19,2.12.27,2.93.72,5.06,3.38,3.45,3.17-1.92,4.8-2.98,6.05-4.11.42-.38.79-.76,1.17-1.19,1.76-2.01,4.81-1.56,7.17-.98,2.36.58,5.15,2.09,8.18,1.76,2.2-.24,4.66-.5,5.49.51.31.38.4.92.15,1.72-.34,1.1-.5,2.32-.47,3.52.06,1.99.66,3.91,1.85,5.07,1.91,1.87,5.92,2.73,3.46,7.68-2.46,4.94-3.81,7.71-3.65,11.03.04.83.12,1.47.21,2,.08.53.16.95.18,1.33.05.75-.11,1.34-.87,2.34,0,0,0,0-.02.02-1.16,1.51-1.25,3.56-1.79,5.34-.18.59-.41,1.15-.74,1.66-1.33,2.01-1.29,4.69-3.46,5.59-2.18.89-5.28.76-4.24,3.35,1.03,2.59-.68,4.71,3.47,6.29.99.37,1.14,1.29,1.13,2.34,0,.53-.06,1.1-.07,1.65,0,.55.02,1.1.18,1.58.43,1.33,3.14,4.73,2.77,5.71-.9,2.39-.4,1.92-2.59,3.36-2.18,1.45-3.87,3.25-3.02,4.18.21.23.57.39,1,.47,1.3.26,3.29-.12,4.12-.94,1.1-1.09,4.65-1.2,7.03-1.18,2.37.04,2.17-1.42,3.69-1.77,1.14-.26,2.58.32,3.31,1.18.24.28.41.6.46.92.19,1.3,2.13,1.43,3.87.53,1.74-.91,2.82-.71,5.18.06,2.36.76,5.57,2.46,5.63-.85.05-3.32.6-7.01,3.61-6.23,3.01.78,4.3.56,6.08-2.36.22-.37.48-.76.76-1.18,1.99-2.92,5.38-6.84,8.58-7.91,2.7-.9,6.19-.35,8.17.71.58.32,1.04.67,1.31,1.05.09.13.16.25.2.38.62,1.86,1.04,2.41-.28,3.68-.66.64-1.09,1.09-1.07,1.39.02.3.51.44,1.69.46.3,0,.56.03.8.06.94.15,1.41.55,1.46,1.18.04.46-.17,1.05-.58,1.74-.42.69-.63,1.71-.6,2.86.04,1.92.73,4.19,2.18,5.82,2.04,2.29,4.38,5.98,6.36,8.12.28.31.56.58.82.82,2.13,1.87,2.11,3.34,1.63,5.37-.23,1.01-.35,1.98-.32,2.9.04.92.24,1.8.65,2.64.73,1.46,2.48,2.9,4.2,4.24.24.19.49.38.73.57,1.92,1.5,1.87,4.45,2.92,6.11,1.05,1.68,1.11,3.34,3.7,5.18,1.59,1.14.54,6.25,1.59,8.47,1.04,2.22,2.91,2.6,4.58,2.52,2.61-.11,7.16-2.12,9.59-5.23,2.43-3.1,3.71-1.98,5.88-2.69,2.17-.71,3.06-2.54,4.84-5.1,1.77-2.55,2.64-2.91,5.48-4.54.96-.55,1.93-1.01,2.77-1.27,1.62-.49,2.73-.21,2.2,1.7-.9,3.21,1.66,4.07,3.37,4.84,1.71.75,1.93.57,3.18,3.54.06.14.1.32.13.52.06.39.07.88.07,1.38,0,.25,0,.5,0,.75,0,1,.04,1.93.42,2.23,1.06.83,3.1-1.1,4.66-1.43.22-.05.43-.06.63-.03,2.58.4,6.73-.26,9.54-.78,2.82-.52,8.71-1.3,11.55-3.67.71-.59,1.26-1.11,1.73-1.58,1.4-1.4,2.07-2.29,4.18-2.96,2.47-.77,6.93-2.23,9.49-4.54.37-.33.69-.68.97-1.04,2.02-2.67,5.66-5.47,8.93-7.03.31-.15.62-.3.92-.42.43-.18.87-.36,1.31-.54,3.06-1.28,6.11-2.61,7.82-3.39,1.96-.9.47-2.02.49-3.5.03-1.47.72-4.05,2.87-4.02,2.16.03,5.79,2.29,6.83,4.7,1.04,2.41,2.91,6.67,4.18,8.34,1.27,1.67,5.04,1.48,7.42,1.7,2.37.21,9.36-1.79,11.12-3.61,1.76-1.82,1.47-3.87,2.15-5.71.63-1.72,2.79-3.58,4.43-.9.11.18.22.38.32.6,1.66,3.52,1.63,5.55,2.89,7.59,1.27,2.05-.3,4.8,1.17,7.4,1.47,2.6.98,6.1.08,8.12-.45,1.01-.84,2.29-.79,3.5.04,1.21.52,2.36,1.81,3.11,2.56,1.51,5.23,1.86,6.91,4.82,1.68,2.96,3.37,4.84,5.95,5.61.64.19,1.32.29,2.01.31,2.06.07,4.18-.49,5.64-.89,1.95-.53,5.61-.11,8.2.47,2.58.59,6.69-.1,7.16-2.31.47-2.2,4.74-5.53,1.19-9.36-.5-.54-.77-1.03-.82-1.43-.17-1.22,1.54-1.73,4.29-1,3.64.96,7.89,1.43,10.3-.39,2.41-1.81,2.54-4.34,3.71-6.32,1.59-2.71,2.39-5.34,4.37-7.34.5-.5.96-1.02,1.41-1.55,1.34-1.58,2.5-3.25,3.75-4.89.22-.28.46-.54.73-.79,1.9-1.74,5.04-2.47,8.8-1.14,4.29,1.53,8.51,5.39,10.46,4.86,1.96-.53,2.36-2.95,3.04-4.97.6-1.79,3.02-3.7,5.51-4.1.33-.05.66-.09.98-.08.7,0,1.44.02,2.21,0,2.32-.03,4.93-.2,7.72-.8,2.09-.45,3.31-.57,3.25-1.05-.03-.21-.31-.5-.89-.92-.44-.31-1.03-.7-1.81-1.18-4.14-2.58-6.65-7.48-1.34-6.44,5.56,1.09,11.19,1.19,13.68-.68,2.51-1.86,4.52-4.16,5.55-6.89,1.04-2.73,3.08-6.49,5.57-8.36,2.5-1.87,4.02-3.95,4.05-5.64.03-1.68.78-2.1,1.8-3.98.26-.47.39-.87.41-1.22.08-1.06-.79-1.74-2.07-3.02-1.49-1.5-3.73-3-6.58-3.24-.41-.04-.83-.04-1.26-.02-3.46.16-8.25-.64-10.43-3.19-1.64-1.92-2.45-3.24-2.32-5.01.04-.59.2-1.24.46-1.97.84-2.37,2.02-5.83,3.88-7.39.27-.22.54-.41.84-.54.2-.09.4-.17.61-.21,2.72-.6,2.93-2.44,3.77-3.96,1.24-2.24,1.89-4.38,3.33-6.91,1.22-2.14,3.34-3.26,4.14-6.83.81-3.58,2.05-4.19,3.82-7.12,1.79-2.93,4.52-4.16,7.21-2.86.67.33,1.24.58,1.76.77,1.55.54,2.67.4,4.91-.68,2.99-1.44,5.65-2.94,8.13-3.54,2.48-.6,6.78-2.1,4.61-5.08Z"/>
      <path class="st3" d="M193.94,435.65c2.17,1.01,5.34,1.01,7.52,2.54,2.18,1.52,8.31,6.41,11.08,5.23,0,0,.2,3.72,3.17,5.57,2.97,1.86,15.04,10.64,16.83,11.82,1.78,1.18,6.73,2.36,9.3,1.69,2.57-.68,5.35-2.53,11.09.34,5.74,2.87,8.31,0,11.09,3.88,2.77,3.88,6.73,6.58,9.5,7.77,2.77,1.18,2.77,5.74,3.37,7.59.59,1.86,4.95,5.4,8.51,6.24,3.56.85,10.29,2.88,13.66,5.07,3.36,2.2,10.69,1.69,14.05,1.52,3.37-.17,6.53-2.2,8.12-3.04,1.58-.85,6.73-2.87,9.11-3.88,2.38-1.01,2.97-2.7,3.96-4.22,1-1.52,3.37-3.21,5.55-4.39,2.18-1.18,5.15-4.56,6.13-7.26.99-2.7,5.35-6.58,7.33-7.09,1.98-.5,4.95-3.55,5.94-2.2.99,1.35,1.58,2.53,3.76,2.7,2.18.17,10.49,3.04,11.68,3.89,1.19.84,5.74,1.85,9.5,3.54,3.76,1.69,8.91,4.89,11.48,6.25,2.57,1.35,8.51,3.2,11.67,3.2s15.84,1.52,20.2-2.53c4.35-4.05,11.88-11.14,14.65-13,2.77-1.85,6.13-7.76,6.73-10.13.41-1.65,2.18-7.17,3.55-10.64-.12-.15-.24-.3-.37-.45-.97-1.24-3.53-.99-5.77.21-.56.3-1.2.61-1.86.86-1.98.76-4.19,1.08-5.25-.57-1.06-1.65-2.36-3.09-2.22-5.21.05-.71.26-1.49.69-2.39,1.73-3.58,3.08-5.46,1.49-9.36-.21-.51-.37-.98-.5-1.42-.21-.71-.3-1.32-.28-1.86.03-1.1.48-1.96,1.3-2.91.41-.48.91-.98,1.5-1.55,2.71-2.62,5.97-5.42,6.47-8.35.49-2.93-.08-5.48,2.72-6.35,4.43-1.38,3.37-2.71,3.19-4.41-.15-1.28-1.27-3.43-1.21-5.09.02-.55.17-1.06.54-1.45.37-.4.83-.79,1.32-1.2,1.46-1.22,3.11-2.6,2.98-4.81-.17-2.94-2.05-9.63-2.25-11.06-.2-1.42-3-3.4-6.22-3.16-2.68.2-6.2.19-7.68-.85-.3-.21-.52-.46-.63-.77-.08-.23-.1-.47-.08-.73.14-1.81,2.5-4.35,3.9-6.57,1.6-2.54,4.31-7.19,4.48-10.41.02-.4.04-.85.04-1.32.03-3.07-.41-7.28-3.5-8.3-.24-.08-.49-.14-.76-.18-4.31-.62-15.13-.13-15.62-3.84-.06-.46-.08-.87-.07-1.23.04-1.8.77-2.49.63-3.62-.05-.45-.25-.97-.68-1.66-.86-1.38-1.17-2.6-1.07-3.72.1-1.12.62-2.16,1.41-3.19,1.59-2.06,2.41-4.52,2.57-7.26.16-2.74,1.32-5.48,1.47-8.13.16-2.65-1.27-3.23-3.24-4.87-1.97-1.64-1.07-2.58.4-4.26,1.29-1.48,3.4-3.74,3.2-5.94-.03-.31-.11-.63-.24-.94-1.07-2.48-3.14-1.85-5.58-1.97-2.44-.13-4.41-1.76-5.81-3.86-1.23-1.84-2.02-3.58-4.42-4.08-.34-.07-.72-.12-1.13-.13-3.33-.13-4.12.61-5.8,1.54-1.68.93-4.22.42-6.22.5-2,.07-4.59.58-7.62,2.44-3.02,1.86-5.15,3.06-7.72,3.98-1.65.59-3.29.9-4.31.59-.14-.04-.27-.1-.39-.16-.35-.2-.57-.51-.62-.96-.19-1.7-1.99-6.75-4.99-6.41-3,.34-5.56,1.07-8.36,2.17-2.79,1.1-7.36,1.99-7.4-1.61-.01-.9.03-1.81.04-2.67.03-2.57-.19-4.65-2.69-4.47-3.33.24-4.89.61-7.75-.76-2.86-1.36-4.43-1.52-5.66-.24,0,0-8.31,6.53-7.95,10.23.31,3.13,2.61,6.95-.93,8.21-.63.22-1.42.37-2.46.41-.43.02-.87.04-1.3.08-6.07.5-12.09,2.82-12.31,8.9-.02.43,0,.89.04,1.36.28,2.84.65,5.06.67,6.88.03,3.04-.93,4.99-5.01,6.9-5.3,2.48-9.19,5.22-9.12,9.04.01.59.12,1.2.32,1.84.1.32.23.65.39.99,1.87,4.03,3.67,5.68,3.88,7.34.07.55-.03,1.1-.37,1.74-.08.16-.15.32-.2.48-.1.32-.14.65-.14.98,0,1.49.85,3.07.78,4.73-.03.74-.25,1.5-.8,2.28-.29.4-.7.84-1.2,1.29-2.43,2.15-6.97,4.44-10.12,3.87-.44-.08-.84-.22-1.21-.42-.63-.34-1.18-.85-1.55-1.6-2.5-5.01-2.9-7.41-5.88-9.66-2.98-2.25-4.87-5.22-7.42-8.02-.64-.7-1.17-1.37-1.65-2.02-1.47-1.93-2.57-3.57-5.14-4.7-2.57-1.14-5.35-4.04-8.43-4.13-.51-.01-1.03.05-1.56.21-.53.17-1.07.43-1.61.81-1.09.77-1.97,1.51-2.71,2.21-2.23,2.1-3.28,3.85-5.4,5.07-2.83,1.62-7.64,4.7-10.03,5.96-2.1,1.1-7.01,2.45-9.92,1.39-.42-.15-.79-.35-1.11-.61-2.55-2.06-4.7-2.82-6.22-2.11-1.52.72,1.44,4.26,1.62,6.29.18,2.03,1.59,7.95-.81,9.58-1.5,1.02-2.17,2.48-2.25,3.93-.05.87.11,1.74.42,2.5.21.51.3,1.1.31,1.72.02,1.87-.79,4.03-1.94,5.27-1.54,1.64-6.38,7.1-5.57,10.07.81,2.96,1.39,7.03.05,9.59-1,1.92-1.39,3.34-1.27,5.01.04.56.14,1.15.29,1.79.07.32.11.62.11.91,0,1.69-1.18,2.72-1.18,4.2,0,.25.03.51.11.79.15.55.21.98.17,1.33-.14,1.06-1.24,1.46-3.69,2.68-3.27,1.62-7.17,2.3-8.2-.47-.54-1.43-1.07-3.07-2.04-3.81-.23-.17-.47-.29-.75-.35-.83-.18-1.92.19-3.43,1.51-4.16,3.63-6.6,7.66-6.65,9.87-.04,2.21-.71,3.86-5.92,5.08-2.69.63-7.87,2.34-12.98,3.26,4.41,2.79,8.3,5.33,9.5,6.2,2.77,2.03,4.75,6.08,6.93,7.09Z"/>
    </g>
    <g>
      <path class="st0" d="M526.05,450.76c-2.18-2.98-3.32-7.84-3.74-12.48-.41-4.64-2.14-6.14-2.54-8.71-.34-2.15-2.4-8.44-4.15-11.6-1.49.17-3.2.12-3.93.33-1.19.34-6.54,3.89-8.11,5.06-1.59,1.18-6.14,3.21-7.33,4.9-1.19,1.69-2.78,2.2-4.55,3.38-1.79,1.18-6.34-.34-8.71-.85-2.37-.51-5.94.51-8.51,1.86-2.57,1.35-11.09,5.74-12.27,8.94-1.19,3.21-5.74,14.69-7.33,16.88-1.58,2.2-3.37,5.74-4.55,7.09-1.18,1.35-3.56,5.4-4.95,7.43-1.38,2.02-3.56,4.89-5.15,6.58-1.58,1.69-2.57,1.69-4.55,2.88-1.98,1.18-5.54,3.2-7.72,4.39-2.17,1.19-6.53,1.01-9.9.67-3.37-.33-13.46-1.86-14.45-2.02-.99-.17-1.98,1.52-3.37,0-1.38-1.52-4.16-3.37-6.34-4.39-2.18-1.01-2.97-2.37-4.55-3.72-1.58-1.35-5.15-2.53-8.12-3.38-2.97-.85-13.66-4.05-16.63-5.06-2.96-1.01-6.73-1.52-10.69,2.37-3.96,3.88-13.27,11.81-15.84,14.34-2.58,2.54-6.14,7.1-8.52,7.6-2.37.5-5.54,1.86-7.12,3.55-1.59,1.68-4.55,3.71-8.71,3.54-4.16-.17-6.93-.34-8.12.85-1.19,1.18-1.79.84-3.17-.34-1.38-1.19-8.12-2.71-11.48-4.22-3.37-1.52-10.89-5.91-12.87-6.59-1.98-.67-7.74-3.69-10.51-2.68-2.77,1.02-15.04,2.36-20,1.69-4.95-.68-10.89-5.91-12.67-8.28-1.79-2.37-3.56-6.92-4.16-9.28-.59-2.37-2.56-3.9-3.55-5.59-.99-1.69-5.15-4.05-6.93-5.74-1.78-1.69-7.32-5.57-8.91-7.26-1.58-1.69-7.72-6.07-10.49-6.75-2.77-.67-5.75-.5-7.13-3.71-1.38-3.21-5.74-5.06-8.12-7.09-2.38-2.02-16.83-11.31-19.6-12.49-2.77-1.18-17.82-8.95-20.59-10.46-2.77-1.53-19.4-9.79-20.19-11.82-.58-1.49-5.88-8.17-11.16-12.42-1.14,2.71-3.14,4.64-3.2,6.38-.01.47.11.92.43,1.37,1.27,1.81,2.83,3.73,2.78,5.58-.01.62-.21,1.22-.65,1.82-1.76,2.37-4.95,4.43-6.15,6.01-1.05,1.39-.87,1.26-1.71,3.48-.55,1.45-1.95,2.2-3.25,3.38-.43.39-.86.83-1.24,1.36-.15.21-.31.41-.48.6-2.57,2.85-7.38,3.61-7.61,5.68-.25,2.21-.27,3.13-3.31,4.01-1.9.55-2.78,1.05-2.93,1.93-.09.53.09,1.19.48,2.1.78,1.81,1.73,3.64,1.57,4.72-.05.36-.23.64-.57.8-2.12,1-2.14-1.51-3.46.13,0,0-1.92,2.36-3.46,2.29-1.54-.06-3.92.13-4.69,1.51-.77,1.38-.85,1.51-1.38,2.16-.54.66-.16,1.44,1,1.57,1.15.13,3.31,2.04,3.92,3.08.61,1.05,1.61,2.23,3.07,2.16,0,0,.06-.01.18-.03.82-.1,4.29-.36,7.06,1.97,1.2,1.01,2.79.94,4.74.96,1.94.03,9.68,1.8,10.05,5.68.07.73.12,1.45.19,2.12.27,2.93.72,5.06,3.38,3.45,3.17-1.92,4.8-2.98,6.05-4.11.42-.38.79-.76,1.17-1.19,1.76-2.01,4.81-1.56,7.17-.98,2.36.58,5.15,2.09,8.18,1.76,2.2-.24,4.66-.5,5.49.51.31.38.4.92.15,1.72-.34,1.1-.5,2.32-.47,3.52.06,1.99.66,3.91,1.85,5.07,1.91,1.87,5.92,2.73,3.46,7.68-2.46,4.94-3.81,7.71-3.65,11.03.04.83.12,1.47.21,2,.08.53.16.95.18,1.33.05.75-.11,1.34-.87,2.34,0,0,0,0-.02.02-1.16,1.51-1.25,3.56-1.79,5.34-.18.59-.41,1.15-.74,1.66-1.33,2.01-1.29,4.69-3.46,5.59-2.18.89-5.28.76-4.24,3.35,1.03,2.59-.68,4.71,3.47,6.29.99.37,1.14,1.29,1.13,2.34,0,.53-.06,1.1-.07,1.65,0,.55.02,1.1.18,1.58.43,1.33,3.14,4.73,2.77,5.71-.9,2.39-.4,1.92-2.59,3.36-2.18,1.45-3.87,3.25-3.02,4.18.21.23.57.39,1,.47,1.3.26,3.29-.12,4.12-.94,1.1-1.09,4.65-1.2,7.03-1.17,2.37.03,2.17-1.42,3.69-1.77,1.14-.26,2.58.33,3.31,1.18.24.28.41.6.46.92.19,1.3,2.13,1.43,3.87.53,1.74-.91,2.82-.71,5.18.06,2.36.76,5.57,2.46,5.63-.85.05-3.32.6-7,3.61-6.23,3.01.78,4.3.56,6.08-2.36.22-.37.48-.76.76-1.18,1.99-2.92,5.38-6.84,8.58-7.91,2.7-.9,6.19-.35,8.17.71.58.32,1.04.67,1.31,1.05.09.13.16.25.2.38.62,1.86,1.04,2.41-.28,3.68-.66.64-1.09,1.09-1.07,1.39.02.3.51.44,1.69.46.3,0,.56.03.8.06.94.15,1.41.55,1.46,1.18.04.46-.17,1.05-.58,1.74-.42.69-.63,1.71-.6,2.86.04,1.92.73,4.19,2.18,5.82,2.04,2.29,4.38,5.99,6.36,8.13.28.31.56.58.82.81,2.13,1.87,2.11,3.35,1.63,5.37-.23,1.01-.35,1.97-.32,2.9.04.92.24,1.8.65,2.64.73,1.46,2.48,2.9,4.2,4.24.24.19.49.38.73.57,1.92,1.5,1.87,4.45,2.92,6.12,1.05,1.68,1.11,3.34,3.7,5.18,1.59,1.13.54,6.25,1.59,8.47,1.04,2.22,2.91,2.6,4.58,2.52,2.61-.12,7.16-2.12,9.59-5.23,2.43-3.1,3.71-1.98,5.88-2.69,2.17-.71,3.06-2.54,4.84-5.1,1.77-2.56,2.64-2.92,5.48-4.54.96-.55,1.93-1.01,2.77-1.27,1.62-.49,2.73-.21,2.2,1.7-.9,3.21,1.66,4.07,3.37,4.84,1.71.75,1.93.57,3.18,3.54.06.14.1.32.13.51.06.39.07.88.07,1.38,0,.25,0,.5,0,.76,0,1,.04,1.93.42,2.23,1.06.83,3.1-1.1,4.66-1.43.22-.05.43-.06.63-.03,2.58.4,6.73-.26,9.54-.78,2.82-.52,8.71-1.3,11.55-3.67.71-.59,1.26-1.11,1.73-1.58,1.4-1.4,2.07-2.29,4.18-2.96,2.47-.77,6.93-2.23,9.49-4.54.37-.33.69-.68.97-1.04,2.02-2.67,5.66-5.47,8.93-7.03.31-.15.62-.3.92-.42.43-.18.87-.36,1.31-.54,3.06-1.28,6.11-2.61,7.82-3.39,1.96-.9.47-2.02.49-3.5.03-1.47.72-4.05,2.87-4.02,2.16.03,5.79,2.29,6.83,4.7,1.04,2.4,2.91,6.67,4.18,8.34,1.27,1.67,5.04,1.48,7.42,1.69,2.37.21,9.36-1.79,11.12-3.61,1.76-1.82,1.47-3.87,2.15-5.71.63-1.72,2.79-3.58,4.43-.9.11.18.22.38.32.6,1.66,3.52,1.63,5.55,2.89,7.59,1.27,2.05-.3,4.8,1.17,7.4,1.47,2.6.98,6.1.08,8.12-.45,1.01-.84,2.29-.79,3.5.04,1.21.52,2.36,1.81,3.12,2.56,1.51,5.23,1.85,6.91,4.82,1.68,2.96,3.37,4.84,5.95,5.61.64.19,1.32.29,2.01.31,2.06.07,4.18-.49,5.64-.89,1.95-.53,5.61-.11,8.2.47,2.58.59,6.69-.1,7.16-2.31.47-2.21,4.74-5.53,1.19-9.37-.5-.54-.77-1.03-.82-1.43-.17-1.22,1.54-1.73,4.29-1,3.64.96,7.89,1.43,10.3-.39,2.41-1.81,2.54-4.34,3.71-6.32,1.59-2.71,2.39-5.34,4.37-7.34.5-.5.96-1.02,1.41-1.54,1.34-1.58,2.5-3.26,3.75-4.89.22-.28.46-.54.73-.79,1.9-1.74,5.04-2.47,8.8-1.13,4.29,1.53,8.51,5.38,10.46,4.86,1.96-.53,2.36-2.95,3.04-4.97.6-1.79,3.02-3.7,5.51-4.1.33-.05.66-.09.98-.08.7,0,1.44.01,2.21,0,2.32-.03,4.93-.2,7.72-.8,2.09-.45,3.31-.57,3.25-1.05-.03-.21-.31-.5-.89-.92-.44-.31-1.03-.7-1.81-1.18-4.14-2.58-6.65-7.48-1.34-6.44,5.56,1.09,11.19,1.19,13.68-.68,2.51-1.86,4.52-4.16,5.55-6.89,1.04-2.73,3.08-6.49,5.57-8.36,2.5-1.87,4.02-3.96,4.05-5.64.03-1.68.78-2.1,1.8-3.98.26-.47.39-.87.41-1.22.08-1.06-.79-1.74-2.07-3.02-1.49-1.5-3.73-3-6.58-3.24-.41-.04-.83-.04-1.26-.02-3.46.16-8.25-.64-10.43-3.19-1.64-1.92-2.45-3.24-2.32-5.01.04-.59.2-1.24.46-1.97.84-2.37,2.02-5.83,3.88-7.39.27-.22.54-.41.84-.55.2-.09.4-.17.61-.21,2.72-.6,2.93-2.44,3.77-3.96,1.24-2.24,1.89-4.38,3.33-6.91,1.22-2.14,3.34-3.26,4.14-6.83.81-3.58,2.05-4.19,3.82-7.12,1.79-2.93,4.52-4.16,7.21-2.86.67.33,1.24.58,1.76.77,1.55.54,2.67.4,4.91-.68,2.99-1.44,5.65-2.94,8.13-3.54,2.48-.6,6.78-2.1,4.61-5.08Z"/>
      <path class="st0" d="M193.94,431.81c2.17,1.01,5.34,1.01,7.52,2.54,2.18,1.52,8.31,6.41,11.08,5.23,0,0,.2,3.72,3.17,5.57,2.97,1.86,15.04,10.64,16.83,11.82,1.78,1.18,6.73,2.36,9.3,1.69,2.57-.68,5.35-2.53,11.09.34,5.74,2.87,8.31,0,11.09,3.88,2.77,3.88,6.73,6.58,9.5,7.77,2.77,1.18,2.77,5.74,3.37,7.59.59,1.86,4.95,5.4,8.51,6.24,3.56.85,10.29,2.88,13.66,5.07,3.36,2.2,10.69,1.69,14.05,1.52,3.37-.17,6.53-2.2,8.12-3.04,1.58-.85,6.73-2.87,9.11-3.88,2.38-1.01,2.97-2.7,3.96-4.22,1-1.52,3.37-3.21,5.55-4.39,2.18-1.18,5.15-4.56,6.13-7.26.99-2.7,5.35-6.58,7.33-7.09,1.98-.5,4.95-3.55,5.94-2.2.99,1.35,1.58,2.53,3.76,2.7,2.18.17,10.49,3.04,11.68,3.89,1.19.84,5.74,1.85,9.5,3.54,3.76,1.69,8.91,4.89,11.48,6.25,2.57,1.35,8.51,3.2,11.67,3.2s15.84,1.52,20.2-2.53c4.35-4.05,11.88-11.14,14.65-13,2.77-1.85,6.13-7.76,6.73-10.13.41-1.65,2.18-7.17,3.55-10.64-.12-.15-.24-.3-.37-.45-.97-1.24-3.53-.99-5.77.21-.56.3-1.2.61-1.86.86-1.98.76-4.19,1.08-5.25-.57-1.06-1.65-2.36-3.09-2.22-5.21.05-.71.26-1.49.69-2.39,1.73-3.58,3.08-5.46,1.49-9.36-.21-.51-.37-.98-.5-1.42-.21-.71-.3-1.32-.28-1.86.03-1.1.48-1.96,1.3-2.91.41-.48.91-.98,1.5-1.55,2.71-2.62,5.97-5.42,6.47-8.35.49-2.93-.08-5.48,2.72-6.35,4.43-1.38,3.37-2.7,3.19-4.41-.15-1.28-1.27-3.43-1.21-5.09.02-.55.17-1.06.54-1.45.37-.4.83-.79,1.32-1.2,1.46-1.22,3.11-2.6,2.98-4.81-.17-2.94-2.05-9.63-2.25-11.06-.2-1.42-3-3.4-6.22-3.16-2.68.2-6.2.19-7.68-.85-.3-.21-.52-.46-.63-.77-.08-.23-.1-.47-.08-.73.14-1.81,2.5-4.35,3.9-6.57,1.6-2.54,4.31-7.19,4.48-10.41.02-.4.04-.85.04-1.32.03-3.07-.41-7.28-3.5-8.3-.24-.08-.49-.14-.76-.18-4.31-.62-15.13-.13-15.62-3.84-.06-.46-.08-.87-.07-1.23.04-1.8.77-2.49.63-3.62-.05-.45-.25-.97-.68-1.66-.86-1.38-1.17-2.6-1.07-3.72.1-1.12.62-2.16,1.41-3.19,1.59-2.06,2.41-4.52,2.57-7.26.16-2.74,1.32-5.48,1.47-8.13.16-2.65-1.27-3.23-3.24-4.87-1.97-1.64-1.07-2.58.4-4.26,1.29-1.48,3.4-3.74,3.2-5.94-.03-.31-.11-.63-.24-.94-1.07-2.48-3.14-1.85-5.58-1.97-2.44-.13-4.41-1.76-5.81-3.86-1.23-1.84-2.02-3.58-4.42-4.08-.34-.07-.72-.12-1.13-.13-3.33-.13-4.12.61-5.8,1.54-1.68.93-4.22.42-6.22.5-2,.07-4.59.58-7.62,2.44-3.02,1.86-5.15,3.06-7.72,3.98-1.65.59-3.29.9-4.31.59-.14-.04-.27-.1-.39-.16-.35-.2-.57-.51-.62-.96-.19-1.7-1.99-6.75-4.99-6.41-3,.34-5.56,1.07-8.36,2.17-2.79,1.1-7.36,1.99-7.4-1.61-.01-.9.03-1.81.04-2.67.03-2.57-.19-4.65-2.69-4.47-3.33.24-4.89.61-7.75-.76-2.86-1.36-4.43-1.52-5.66-.24,0,0-8.31,6.53-7.95,10.23.31,3.13,2.61,6.95-.93,8.21-.63.22-1.42.37-2.46.41-.43.02-.87.04-1.3.08-6.07.5-12.09,2.82-12.31,8.9-.02.43,0,.89.04,1.36.28,2.84.65,5.06.67,6.88.03,3.04-.93,4.99-5.01,6.9-5.3,2.48-9.19,5.22-9.12,9.04.01.59.12,1.2.32,1.84.1.32.23.65.39.99,1.87,4.03,3.67,5.68,3.88,7.34.07.55-.03,1.1-.37,1.74-.08.16-.15.32-.2.48-.1.32-.14.65-.14.98,0,1.49.85,3.07.78,4.73-.03.74-.25,1.5-.8,2.28-.29.4-.7.84-1.2,1.29-2.43,2.15-6.97,4.44-10.12,3.87-.44-.08-.84-.22-1.21-.42-.63-.34-1.18-.85-1.55-1.6-2.5-5.01-2.9-7.41-5.88-9.66-2.98-2.25-4.87-5.22-7.42-8.02-.64-.7-1.17-1.37-1.65-2.02-1.47-1.93-2.57-3.57-5.14-4.7-2.57-1.14-5.35-4.04-8.43-4.13-.51-.01-1.03.05-1.56.21-.53.16-1.07.43-1.61.81-1.09.77-1.97,1.51-2.71,2.21-2.23,2.1-3.28,3.85-5.4,5.07-2.83,1.62-7.64,4.7-10.03,5.96-2.1,1.1-7.01,2.45-9.92,1.39-.42-.15-.79-.35-1.11-.61-2.55-2.06-4.7-2.82-6.22-2.11-1.52.72,1.44,4.26,1.62,6.29.18,2.03,1.59,7.95-.81,9.58-1.5,1.02-2.17,2.48-2.25,3.93-.05.87.11,1.74.42,2.5.21.51.3,1.1.31,1.72.02,1.87-.79,4.03-1.94,5.27-1.54,1.64-6.38,7.1-5.57,10.07.81,2.96,1.39,7.03.05,9.59-1,1.92-1.39,3.34-1.27,5.01.04.56.14,1.15.29,1.79.07.32.11.62.11.91,0,1.69-1.18,2.72-1.18,4.2,0,.25.03.51.11.79.15.55.21.98.17,1.33-.14,1.06-1.24,1.46-3.69,2.68-3.27,1.62-7.17,2.3-8.2-.47-.54-1.43-1.07-3.07-2.04-3.81-.23-.17-.47-.29-.75-.35-.83-.18-1.92.19-3.43,1.51-4.16,3.63-6.6,7.66-6.65,9.87-.04,2.21-.71,3.86-5.92,5.09-2.69.63-7.87,2.34-12.98,3.26,4.41,2.79,8.3,5.33,9.5,6.21,2.77,2.03,4.75,6.08,6.93,7.09Z"/>
    </g>
    <g>
      <path class="st2" d="M338.22,296.52s.48,4.51,3.53,7.1c3.04,2.59,4.64,6.83,3.2,9.16-1.44,2.32-3.2,6.69-.96,9.29,2.24,2.6,2.41,4.92,2.09,6.83-.32,1.91-.64,8.47,3.04,9.15,3.69.69,4.96.14,6.89,2.05,1.92,1.91,5.93,3.42,7.05,4.1,1.12.68,2.4,1.91,2.88,3.41.48,1.5,3.21,3.14,3.53,3.69.32.55-.16,4.92,5.12,5.88,0,0,2.56-4.92,3.68-6.83,1.12-1.91,5.45-7.51,7.05-8.47,1.6-.95.48,2.59,2.89,3.96,1.31.75.16-3.55,0-4.78-.16-1.23-.96-5.33-.64-7.24.32-1.92-2.25-4.92-2.25-6.69s-.8-5.47-1.92-7.11c-1.12-1.64-.8-3.14-1.12-5.74-.32-2.6,1.92-8.2,3.21-11.2,1.28-3.01.47-5.47-.8-6.56-1.29-1.09,0-3.69,0-3.69"/>
      <path class="st2" d="M374.6,357.19s6.41,5.47,8.01,6.7c1.6,1.23,4.97,4.38,5.93,5.6.96,1.23,5.29,5.46,7.69,7.1,2.41,1.64,4.81.82,6.09,1.64,1.28.82,2.72,1.09,3.68,2.46l.48-3.28s9.45-3.42,11.7-4.23c2.24-.82,7.53-1.91,9.29-1.09,1.76.81,8.01,1.78,13.94-1.37"/>
      <path class="st2" d="M406,380.69s1.77,9.02.64,10.93c-1.11,1.91-2.08,7.93-1.11,9.43.96,1.5,2.88,7.1,3.84,8.75.96,1.64,4.49,5.33,4.65,7.65.16,2.32.32,5.46.32,7.38s-.16,2.18-.64,3.14c0,0,8.01,1.5,11.05,1.23,3.05-.27,7.69-1.91,9.3-2.87,1.6-.96,3.04-2.05,4.96-2.47"/>
      <path class="st2" d="M483.87,487.26l-28.68-13.66s1.12-1.78,1.92-2.74c.8-.95,2.73-5.32,2.73-5.32-1.44-1.37-6.12-3.38-6.12-3.38"/>
      <path class="st2" d="M311.04,351.48s4.85,2.66,6.57,3.54c1.73.88,5.02,4.13,7.1,5.46,2.08,1.33,11.6,8.71,13.51,10.63,1.9,1.92,6.58,6.64,10.91,8.26,4.32,1.63,8.82,2.81,10.9,3.84,0,0,6.41-3.25,8.14-5.17,1.73-1.92,4.68-3.54,6.06-5.9,0,0,2.25,1.18,3.46,1.92,1.21.74,3.64.15,3.29-1.03-.35-1.18,0-2.36,0-2.36,0,0,4.84-2.66,5.88-2.95"/>
      <path class="st2" d="M300.99,355.32s-.17,4.87,2.42,5.46c2.6.59,5.37.45,5.71,3.1.35,2.66,1.04,9.74,2.59,12.25,1.56,2.5.52,3.1,1.04,4.72.52,1.62,1.21,4.58,1.39,5.61.17,1.03.69,3.84-1.91,4.58-2.6.74-7.62,2.36-8.14,3.25-.52.88-.69,1.18,1.21,2.06,1.9.89,5.54,2.95,7.28,4.87,1.73,1.92,4.15,3.1,5.54,2.36,1.39-.74,3.46-1.47,6.4-1.03,2.95.44,7.27-.44,7.27,1.03s.52,4.28,1.56,4.72c1.04.45,1.55.74,2.07,2.36.52,1.63,2.42,5.9,4.16,5.17,1.73-.74,3.81-1.03,5.02.3,1.21,1.33,4.84,2.06,8.31,1.77,0,0,4.67-3.39,6.06-4.87,1.39-1.48,6.58-6.35,7.79-8.71,1.21-2.36,3.29-3.69,5.37-3.84,2.08-.14,7.27-.14,8.83-2.66,1.56-2.5,3.28-4.28,5.54-5.31,2.25-1.03,3.46-2.66,8.13-3.39,4.67-.74,10.56-2.36,12.29-2.95"/>
      <path class="st2" d="M352.93,417.91s0,9.89.17,11.96c.17,2.07.53,7.82-1.04,9.6-1.56,1.77-4.5,5.91-4.5,7.09s-.87,2.8-2.77,4.72c-1.9,1.92-6.58,6.64-6.58,8.71s4.84,7.38,7.27,10.04"/>
      <path class="st2" d="M299.78,355.17s-5.36.15-6.4,2.51c-1.04,2.36-2.77,1.47-4.5,1.92-1.73.44-4.16.44-5.19,1.92-1.04,1.48-3.12,1.62-4.68,1.04-1.56-.6-5.02-.89-4.15,1.92.86,2.8,1.04,5.46.86,6.94-.17,1.48.86,3.25,1.21,4.43.35,1.18-1.21,5.91-.17,7.53,1.04,1.63,2.95,4.43,2.6,5.76-.35,1.33-.87,2.8.69,3.69,1.56.88,5.19,1.92,4.16,4.58-1.04,2.66-1.56,6.94-1.04,8.27.52,1.33,1.91,2.96,1.21,3.84-.69.89-1.21,2.66-.69,3.84.52,1.18-.17,1.18-1.91,1.48-1.73.29-2.6.74-1.21,2.21,1.38,1.48,13.5,13.88,14.55,14.76,1.03.88,1.9-.44,2.94-1.18,1.04-.74,2.42-1.48,3.81-1.33,1.39.14,13.34.29,15.06.29s6.23.15,8.13.15,5.02.3,6.4-.88c1.39-1.18,3.29-3.1,5.37-2.51,2.08.59,8.31,2.66,10.04,1.63,1.73-1.04,7.44-3.4,7.79-1.33.34,2.07,3.29,2.36,5.02,2.95,1.73.59,5.02.59,6.06,0,1.04-.59,6.57-4.42,9.52-2.8,2.95,1.62,5.2,4.43,6.07,6.35.86,1.92,3.29,2.95,5.01,2.81,1.73-.15,3.81,1.03,5.54,1.92,1.73.88,6.58,1.77,8.31,2.21,1.73.44,3.98.29,6.23,1.03,0,0,3.29-5.16,3.63-6.2.41-1.22,3.64-6.92,3.64-6.92"/>
      <polyline class="st2" points="406.42 441.08 409.88 442.41 391.99 473.3"/>
      <path class="st2" d="M225.02,415.58c2.28-3.36,6.85-6.9,8.31-8.14,1.46-1.24,9.34-1.42,13.5-1.42s4.15-1.42,4.78-3.18c.62-1.77-.41-3.01,1.04-5.31,1.45-2.3,6.85-3.54,9.34-3.9,2.49-.35,3.12-3.01,3.12-4.25s1.04-2.48,2.91-2.84c1.87-.36,2.49-.71,3.32-1.95.83-1.24,5.44-1.23,5.44-1.23"/>
      <path class="st2" d="M207.36,398.94s-2.07,3.18,0,4.78c2.08,1.59,4.57,3.72,5.61,4.6,1.04.88,5.4,3.18,6.85,4.25,1.45,1.06,4.98,2.83,7.27,4.96,2.28,2.12,6.44,5.14,9.35,6.91,2.91,1.77,7.89,3.19,9.97,3.72,2.08.53,7.47,1.41,6.02,3.19-1.45,1.77-3.11,6.56-3.11,6.56,0,0,3.32,1.59,5.6,3.01,2.29,1.42,5.81,1.95,8.1,1.24,2.29-.71,7.47-.54,11-.71,3.53-.18,9.76-.53,12.46-.35,2.7.17,3.53.53,2.08,2.12-1.45,1.6-3.74,2.66-2.08,4.26,1.66,1.59,2.28,5.14.41,6.02-1.87.88-3.11,2.66-3.32,3.72-.21,1.06-2.49,3.72-4.56,4.78-2.08,1.07-8.52,4.96-11.01,6.38"/>
      <path class="st2" d="M287.96,450.99s5.79-3.2,6.65-3.48c.86-.27,4.18-.36,5.04-1,.86-.64,5.68-1.74,7.29-.74,1.61,1.01,4.72,3.11,6.01,3.75,1.28.64,2.36.73,3.54.64,1.18-.09,2.36.18,3.86,1.18,1.5,1.01,3.44,2.2,4.94,1.29,1.5-.91,6.97-4.21,8.15-1.92,1.18,2.29,4.41,8.47,4.78,9.27"/>
      <path class="st2" d="M136.6,460.57c2.8-.82,3.47-4.36,4.05-5.92.58-1.56,1.73-3.21,2.7-3.04.96.16,2.12.49,2.03,1.56-.1,1.07.38,2.65,1.63,3.9,1.26,1.25,3.14,4.45,3.14,4.45l6.06,13,24.85-3.03c-.63-1.25-.42-4.81-1.05-8.73-.62-3.92-.83-8.37-1.67-9.97-.83-1.6-.83-5.52,3.34-4.09,4.18,1.42,5.01,3.2,8.36,5.17,3.34,1.95,11.07.89,11.07.89,0,0,.21-1.61-.21-2.49-.42-.89-1.88-2.49-3.97-3.92,0,0-.8-1.68-.75-2.57.05-.89-1.4-2-1.7-2.81"/>
      <path class="st2" d="M200.85,454.51s4.25,8.83,5.04,10.07c.8,1.25,1.59,5.09-.39,6.34-1.99,1.24-8.36,1.47-8.63,6.11-.26,4.64-1.19,10.98-3.05,12.91-1.85,1.92-4.51,4.98-4.91,6.45-.39,1.47-.92,2.71-2.65,2.83-1.72.11-4.64-2.04-6.5-2.83-1.86-.79-6.9-1.7-11.01-1.7s-8.36,1.7-10.48,3.28c-2.13,1.59-3.32,3.51-5.57,4.3-2.26.79-4.38.12-5.17-2.82-.8-2.95-3.06-4.53-9.95-4.3"/>
      <path class="st2" d="M195.54,485.4s1.72,4.07,4.64,4.75c2.92.68,8.36,2.83,9.69,5.44,1.32,2.6,1.46,6.9,1.86,8.94.39,2.03,1.72,6.79,1.59,8.48-.13,1.7,2.65,8.03,4.25,9.17,1.59,1.13,2.92,3.06,5.97,3.85l-3.58,4.75-.27,1.81"/>
      <path class="st2" d="M190.5,517.65s3.98-.11,4.77,1.92c.8,2.04,1.86,3.85,3.58,4.41,1.72.57,4.9.57,5.7,1.81.8,1.24,6.9,7.13,8.89,7.13s7.57-.23,10.09-.79c2.52-.57,8.49-1.36,8.49-1.36,0,0,1.06,4.18,2.52,5.65,1.46,1.47,1.99,3.28,1.59,4.08-.4.79-.27,2.6-.4,3.84-.13,1.25,0,1.59-.79,2.49-.8.9-1.2,2.82-.13,3.96,1.06,1.13,3.85,2.26,3.05,3.28-.8,1.02-1.99,2.37.53,2.15,2.52-.22,5.71.12,5.97,2.04.26,1.92.93,2.15,2.25,3.05,1.33.9,4.91,3.16,4.91,3.16"/>
      <path class="st2" d="M306.09,500.21s-1.05,6.85,1.28,7.44c2.33.59,3.61.79,3.49,3.38-.12,2.58-1.28,10.42-1.28,12.8s-.7,10.02-.7,11.21c0,0-2.56-.5-4.89-.4-2.33.1-4.54.29-5.7.8,0,0-6.4-3.38-7.8-4.87-1.4-1.48-1.4-2.08-1.4-3.57s-1.16-3.67-2.21-4.27c-1.04-.59-1.98-3.87-1.98-5.16s.82-1.98-.93-2.58c-1.75-.6-8.03-1.98-9.54-2.38-1.51-.39-5-.1-6.28.79-1.28.89-4.19,2.78-7.22,2.48-3.03-.29-7.22-1.59-8.38-1.98-1.16-.4-3.49.5-4.54,1.29-1.05.79-4.77,2.48-6.64,2.78-1.86.29-8.5,2.48-9.89,3.67-1.39,1.19-4.54,1.98-5.35,2.38-.81.4-1.81,1.3-2.59,1.99"/>
      <path class="st2" d="M306.53,534.87s.11,4.47,2.68,6.85c2.57,2.37,4.68,3.33,4.01,5.04-.67,1.71-1.67,6.66-.89,9.41"/>
      <path class="st2" d="M399.64,486.09c.31,1.96,3.77,8.03,3.77,10.26s-1.07,5.5,1.84,7.33c2.92,1.83,10.58,4.18,13.96,5.23,3.38,1.04,16.57,5.36,19.02,6.54,2.46,1.18,6.14,4.58,7.98,7.2,1.84,2.62,4.75,6.93,6.29,9.42,1.54,2.48,7.18,12.18,7.56,16.4"/>
      <path class="st2" d="M346.98,479.42c1.71,2.19,4.66,8.39,4.66,10.7s2.84,8.15,3.7,10.82c.86,2.68,9.55,21.65,11.55,25.54,0,0,2.71.36,6.27-.49,0,0,2.28,10.22,6.7,13.87,4.42,3.65,7.71,6.08,15.4,5.23,7.7-.85,8.56-2.07,10.98-3.53,2.43-1.46,3.99-4.02,7.7-3.89,3.71.12,6.71,0,5.99,2.43-.72,2.43-1.14,2.31.29,4.02,1.42,1.7,6.27,7.17,6.27,7.17,0,0,4.13,2.19,5.85,2.91"/>
      <path class="st2" d="M224.13,524.78s4.5-6.09,6.69-8.46c2.19-2.36,3.57-3.63,6.11-4.13,2.54-.49,4.61-1.38,5.19-4.23.57-2.85,5.46-16.84,6.38-18.81"/>
      <path class="st2" d="M295.62,431.98l1.66,2.84-3.56,1.41s-1.66.21-2.14,1.22c-.48,1.01-1.43,1.21-2.38,1.42-.95.21-2.37.2-3.57,2.02"/>
    </g>
    <path class="st3" d="M232.1,467.01s.05,4.01,1.07,7.06c1.02,3.05,3.72,7.13,5.9,8.96,2.19,1.82,7.44,4.68,9.72,4.96,2.28.28,7.3.04,8.65-.04,1.35-.08,7.44-.83,8.65-1.26,1.21-.44,2.32-1.39,1.21-2.38-1.12-.99-6.97-7.61-8.04-8.68-1.07-1.07-7.62-5.79-13.71-7.1-6.09-1.31-9.3-2.34-10.92-2.62-1.63-.27-2.6.16-2.51,1.11Z"/>
    <path class="st0" d="M232.1,463.89s.05,4,1.07,7.06c1.02,3.05,3.72,7.13,5.9,8.96,2.19,1.82,7.44,4.68,9.72,4.96,2.28.28,7.3.04,8.65-.04,1.35-.08,7.44-.83,8.65-1.26,1.21-.44,2.32-1.39,1.21-2.38-1.12-.99-6.97-7.61-8.04-8.68-1.07-1.07-7.62-5.79-13.71-7.09-6.09-1.31-9.3-2.34-10.92-2.62-1.63-.27-2.6.16-2.51,1.11Z"/>
  </g>
</svg>